<!-- SVG Sprite -->
<svg width="0" height="0" class="hidden">
    <symbol fill="none" xmlns="http://www.w3.org/2000/svg" viewBox="0 0 16 16" id="activity-svgrepo-com">
        <path d="M15 1H1V7H3.38197L4.88196 4L7.11803 4L10 9.76393L11.382 7H15V1Z" fill="#000000"></path>
        <path d="M15 9H12.618L11.118 12L8.88197 12L6 6.23607L4.61803 9H1V15H15V9Z" fill="#000000"></path>
    </symbol>
    <symbol fill="none" xmlns="http://www.w3.org/2000/svg" viewBox="0 0 16 16" id="address-card-svgrepo-com">
        <path fill-rule="evenodd" clip-rule="evenodd" d="M16 2H0V14H16V2ZM5 10.5C6.38071 10.5 7.5 9.38071 7.5 8C7.5 6.61929 6.38071 5.5 5 5.5C3.61929 5.5 2.5 6.61929 2.5 8C2.5 9.38071 3.61929 10.5 5 10.5ZM10 5H14V7H10V5ZM14 9H10V11H14V9Z" fill="#000000"></path>
    </symbol>
    <symbol fill="none" xmlns="http://www.w3.org/2000/svg" viewBox="0 0 16 16" id="alien-svgrepo-com">
        <path fill-rule="evenodd" clip-rule="evenodd" d="M8 16L3.54223 12.3383C1.93278 11.0162 1 9.04287 1 6.96005C1 3.11612 4.15607 0 8 0C11.8439 0 15 3.11612 15 6.96005C15 9.04287 14.0672 11.0162 12.4578 12.3383L8 16ZM3 6H5C6.10457 6 7 6.89543 7 8V9L3 7.5V6ZM11 6C9.89543 6 9 6.89543 9 8V9L13 7.5V6H11Z" fill="#000000"></path>
    </symbol>
</svg>